PathFileType	4	(X/Y/Z)	D:\telocate\uwb06-Unnamed.trc
DataRate	CameraRate	NumFrames	NumMarkers	Units	OrigDataRate	OrigDataStartFrame	OrigNumFrames
100.00	100.00	     220	0	mm	100.00	4129	     16512
Frame#	Time	
		

4129	41.280	3778.95947	-454.43045	1142.85449	
4130	41.290	3777.69141	-444.56772	1142.77014	
4131	41.300	3780.42114	-435.34457	1140.82178	
4132	41.310	3779.45581	-425.46475	1141.07617	
4133	41.320	3779.51880	-416.01901	1140.35278	
4134	41.330	3781.74951	-406.19556	1138.09253	
4135	41.340	3780.49268	-397.30978	1138.24536	
4136	41.350	3782.66455	-388.53043	1137.69678	
4137	41.360	3781.07666	-379.93420	1137.58386	
4138	41.370	3781.33423	-370.44583	1137.54126	
4139	41.380	3783.89746	-362.30460	1135.84473	
4140	41.390	3782.35229	-352.25931	1136.61646	
4141	41.400	3783.74438	-342.92999	1134.79382	
4142	41.410	3782.42456	-333.98660	1135.71350	
4143	41.420	3782.57031	-324.73410	1135.38831	
4144	41.430	3781.85962	-315.30579	1134.57825	
4145	41.440	3781.38330	-305.95120	1134.90051	
4146	41.450	3781.44873	-297.28528	1133.92932	
4147	41.460	3781.31836	-287.78983	1133.18542	
4148	41.470	3781.98242	-278.37537	1132.01160	
4149	41.480	3780.84058	-268.52371	1131.58813	
4150	41.490	3777.76123	-259.31995	1131.44910	
4151	41.500	3778.93018	-249.65685	1130.36804	
4152	41.510	3777.56104	-239.85939	1129.54358	
4153	41.520	3774.52271	-229.72986	1129.54578	
4154	41.530	3772.57373	-220.39500	1128.93567	
4155	41.540	3771.12549	-210.12054	1128.90625	
4156	41.550	3769.21851	-200.47617	1128.45569	
4157	41.560	3767.58887	-191.18642	1128.35815	
4158	41.570	3765.52295	-182.28140	1128.73621	
4159	41.580	3764.27783	-173.27321	1128.86523	
4160	41.590	3762.59399	-163.80258	1129.81592	
4161	41.600	3760.46338	-155.00543	1130.21606	
4162	41.610	3758.09766	-146.13324	1130.89746	
4163	41.620	3757.76636	-137.53963	1130.14038	
4164	41.630	3756.16479	-128.38548	1131.06873	
4165	41.640	3752.27588	-118.92861	1132.15369	
4166	41.650	3751.45947	-109.83602	1131.22168	
4167	41.660	3747.26587	-100.10587	1133.01416	
4168	41.670	3745.21826	-90.74621	1133.82385	
4169	41.680	3743.92090	-81.36677	1134.45044	
4170	41.690	3742.42749	-73.16901	1134.88855	
4171	41.700	3742.44409	-63.60806	1134.47876	
4172	41.710	3738.62427	-54.78728	1136.18091	
4173	41.720	3736.59717	-46.14108	1136.34717	
4174	41.730	3735.83691	-37.41217	1137.46570	
4175	41.740	3736.04565	-29.71368	1137.37976	
4176	41.750	3732.30444	-20.64916	1138.50024	
4177	41.760	3730.68433	-12.39907	1139.12842	
4178	41.770	3729.55811	-4.45061	1139.51257	
4179	41.780	3729.82959	4.61826	1138.60693	
4180	41.790	3726.17944	13.86409	1139.47131	
4181	41.800	3724.23926	23.18946	1139.26184	
4182	41.810	3723.72607	32.68385	1139.11230	
4183	41.820	3722.48657	41.54997	1139.43054	
4184	41.830	3721.21777	51.40641	1138.96985	
4185	41.840	3719.70752	60.24148	1138.61438	
4186	41.850	3718.07153	70.24461	1137.79773	
4187	41.860	3717.43921	80.16918	1137.27026	
4188	41.870	3716.08228	89.71610	1136.80054	
4189	41.880	3714.76440	99.17281	1136.33875	
4190	41.890	3713.88501	109.46175	1135.24524	
4191	41.900	3712.39014	119.39767	1134.20874	
4192	41.910	3710.63379	128.95883	1133.40491	
4193	41.920	3710.14111	139.74933	1132.35535	
4194	41.930	3709.77222	149.23132	1131.50891	
4195	41.940	3709.47363	159.36290	1130.91260	
4196	41.950	3707.94385	168.79582	1129.81531	
4197	41.960	3706.87671	179.16594	1129.02673	
4198	41.970	3706.16309	189.33469	1127.44324	
4199	41.980	3705.98169	198.74646	1127.18115	
4200	41.990	3704.80835	208.05304	1126.34473	
4201	42.000	3704.02930	217.87494	1125.80750	
4202	42.010	3703.38965	228.36072	1125.40942	
4203	42.020	3702.42090	236.99707	1124.12146	
4204	42.030	3702.94287	247.16362	1124.04382	
4205	42.040	3703.73022	256.14612	1122.04443	
4206	42.050	3703.33545	265.08398	1120.94458	
4207	42.060	3703.19067	274.23474	1120.80042	
4208	42.070	3702.79907	283.73175	1120.57678	
4209	42.080	3702.52686	293.55032	1120.72229	
4210	42.090	3700.12256	302.46555	1122.13196	
4211	42.100	3700.06201	310.64572	1123.03271	
4212	42.110	3699.26538	320.21173	1123.24341	
4213	42.120	3698.17700	328.34494	1123.34119	
4214	42.130	3700.16919	337.54306	1122.98962	
4215	42.140	3697.45361	346.10019	1124.86133	
4216	42.150	3696.24536	354.42511	1125.70471	
4217	42.160	3697.18970	362.66046	1126.61084	
4218	42.170	3696.62720	371.08551	1127.33411	
4219	42.180	3695.85864	379.27356	1127.59351	
4220	42.190	3695.73242	387.39822	1129.02405	
4221	42.200	3695.38574	395.84467	1130.43762	
4222	42.210	3695.27222	404.35727	1131.03284	
4223	42.220	3694.21655	413.05954	1130.77747	
4224	42.230	3692.74756	422.17270	1131.13269	
4225	42.240	3691.65967	431.04013	1131.48218	
4226	42.250	3691.83984	439.54208	1132.76953	
4227	42.260	3690.40601	448.27246	1133.21973	
4228	42.270	3689.91284	456.33270	1134.12195	
4229	42.280	3689.67065	464.43542	1134.93506	
4230	42.290	3688.65137	472.51019	1134.98718	
4231	42.300	3687.96680	479.89236	1135.61670	
4232	42.310	3686.74512	486.99612	1135.84119	
4233	42.320	3684.77881	495.20355	1136.06458	
4234	42.330	3683.70435	502.77182	1136.63196	
4235	42.340	3681.45166	511.70889	1136.51990	
4236	42.350	3678.35278	520.00818	1136.91040	
4237	42.360	3677.43091	528.60388	1136.09888	
4238	42.370	3674.72900	536.88483	1136.92578	
4239	42.380	3672.01196	545.57227	1135.87598	
4240	42.390	3670.90088	554.99426	1135.31885	
4241	42.400	3667.28394	563.60461	1135.14209	
4242	42.410	3664.83545	572.71985	1134.13684	
4243	42.420	3661.86108	581.28162	1133.28223	
4244	42.430	3659.92505	590.61426	1131.51111	
4245	42.440	3656.77563	599.35675	1131.27930	
4246	42.450	3653.37061	608.43451	1129.41870	
4247	42.460	3650.13281	617.06525	1127.60168	
4248	42.470	3647.04321	625.95642	1126.54150	
4249	42.480	3645.29858	634.59424	1125.70154	
4250	42.490	3642.17847	643.81781	1124.33545	
4251	42.500	3638.85645	651.89001	1122.67004	
4252	42.510	3636.37622	660.70422	1121.75549	
4253	42.520	3634.39917	669.31409	1120.12476	
4254	42.530	3630.78931	677.21619	1119.15857	
4255	42.540	3628.55054	685.85242	1117.54810	
4256	42.550	3625.37915	694.52429	1116.74304	
4257	42.560	3622.56396	703.61633	1114.82080	
4258	42.570	3619.27563	712.76514	1113.21484	
4259	42.580	3617.68750	721.35608	1112.07788	
4260	42.590	3615.17700	729.32617	1110.75708	
4261	42.600	3611.03052	737.95007	1108.65381	
4262	42.610	3608.03979	746.41455	1107.48633	
4263	42.620	3605.20483	754.92139	1105.65002	
4264	42.630	3601.49927	762.75232	1105.27527	
4265	42.640	3597.90405	771.48389	1103.66663	
4266	42.650	3594.18896	779.29663	1103.08618	
4267	42.660	3591.12183	787.30139	1102.16528	
4268	42.670	3586.72290	795.68024	1101.06775	
4269	42.680	3582.67163	803.18732	1099.42834	
4270	42.690	3578.62378	811.62128	1098.96277	
4271	42.700	3575.64087	818.86938	1096.71021	
4272	42.710	3570.64868	826.50867	1096.82104	
4273	42.720	3566.38965	834.52295	1096.01819	
4274	42.730	3562.08887	841.72266	1095.06226	
4275	42.740	3557.64429	848.81696	1093.92090	
4276	42.750	3554.32739	855.23749	1093.99695	
4277	42.760	3550.00293	862.65295	1093.63867	
4278	42.770	3545.54443	869.28021	1093.42566	
4279	42.780	3541.59448	876.27533	1093.46399	
4280	42.790	3537.50098	882.61060	1093.03320	
4281	42.800	3533.68774	889.97119	1093.57764	
4282	42.810	3529.11719	896.70587	1092.58899	
4283	42.820	3525.03589	903.38098	1092.89587	
4284	42.830	3520.93262	909.91174	1091.50085	
4285	42.840	3516.60645	917.07092	1091.97021	
4286	42.850	3511.12231	924.25751	1091.17017	
4287	42.860	3506.55713	931.05884	1090.55981	
4288	42.870	3503.49683	937.90369	1089.72949	
4289	42.880	3499.69409	944.75787	1089.34546	
4290	42.890	3494.40356	951.55859	1088.97656	
4291	42.900	3489.31348	958.39008	1088.55371	
4292	42.910	3484.98291	965.40234	1089.13440	
4293	42.920	3480.56982	971.90039	1088.93555	
4294	42.930	3475.49634	978.94629	1088.35034	
4295	42.940	3470.79077	985.80615	1088.96399	
4296	42.950	3465.64526	992.62860	1088.72009	
4297	42.960	3460.75806	999.36261	1088.58679	
4298	42.970	3456.38696	1005.77277	1087.89685	
4299	42.980	3451.58936	1012.81805	1087.67639	
4300	42.990	3446.39331	1019.38538	1087.55444	
4301	43.000	3441.09033	1026.76697	1087.38440	
4302	43.010	3436.49707	1033.86548	1087.08118	
4303	43.020	3432.66602	1040.74756	1086.76086	
4304	43.030	3428.27759	1047.95068	1086.64905	
4305	43.040	3423.80444	1055.41125	1084.68579	
4306	43.050	3415.03418	1060.72437	1087.53003	
4307	43.060	3414.39038	1067.98145	1084.42920	
4308	43.070	3406.22803	1074.06897	1086.85181	
4309	43.080	3400.75830	1081.26318	1086.02686	
4310	43.090	3395.82935	1088.13660	1085.74927	
4311	43.100	3390.01489	1094.89380	1085.94055	
4312	43.110	3384.55933	1102.43616	1085.99573	
4313	43.120	3378.89893	1109.19495	1085.98462	
4314	43.130	3374.55713	1115.79431	1085.81494	
4315	43.140	3369.51318	1122.47864	1086.30212	
4316	43.150	3363.50879	1129.49561	1086.24121	
4317	43.160	3358.06299	1136.45630	1086.32495	
4318	43.170	3352.83594	1143.37366	1086.46252	
4319	43.180	3348.17236	1148.99524	1086.42212	
4320	43.190	3343.33325	1155.29883	1086.21826	
4321	43.200	3337.51074	1161.85413	1086.08777	
4322	43.210	3329.23169	1167.48865	1088.22668	
4323	43.220	3324.29712	1173.85059	1088.63416	
4324	43.230	3319.06396	1179.29700	1088.57617	
4325	43.240	3314.01660	1185.24878	1089.05920	
4326	43.250	3308.12915	1191.31982	1090.08435	
4327	43.260	3302.44556	1197.02014	1090.46204	
4328	43.270	3298.62842	1202.85620	1091.53320	
4329	43.280	3293.08398	1208.36182	1091.96472	
4330	43.290	3288.37598	1213.97961	1093.00281	
4331	43.300	3283.87671	1219.79382	1094.12134	
4332	43.310	3279.89673	1225.01782	1095.55505	
4333	43.320	3274.99341	1230.59900	1096.60181	
4334	43.330	3269.93335	1236.29565	1097.83569	
4335	43.340	3264.84229	1241.80884	1098.80017	
4336	43.350	3260.17212	1247.44177	1099.90210	
4337	43.360	3254.08276	1253.13928	1101.13562	
4338	43.370	3249.79248	1258.32178	1101.97437	
4339	43.380	3243.89355	1264.57800	1102.71252	
4340	43.390	3238.31470	1270.25171	1102.87781	
4341	43.400	3232.41382	1275.71533	1103.42883	
4342	43.410	3227.67407	1280.59949	1104.22900	
4343	43.420	3221.89160	1287.20166	1104.38354	
4344	43.430	3216.85522	1292.34070	1104.79089	
4345	43.440	3210.65137	1298.10034	1104.74182	
4346	43.450	3205.41919	1302.70691	1105.01038	
4347	43.460	3200.05005	1307.87683	1105.95044	
4348	43.470	3193.32764	1312.99097	1105.62012	
